<mxfile host="app.diagrams.net" agent="Mozilla/5.0 (Windows NT 10.0; Win64; x64) AppleWebKit/537.36 (KHTML, like Gecko) Chrome/136.0.0.0 Safari/537.36" version="26.2.14">
  <diagram name="페이지-1" id="2VFrw-ZT5B5RJ2_5uDYA">
    <mxGraphModel grid="1" page="1" gridSize="10" guides="1" tooltips="1" connect="0" arrows="1" fold="1" pageScale="1" pageWidth="827" pageHeight="1169" math="0" shadow="0">
      <root>
        <mxCell id="0" />
        <mxCell id="1" parent="0" />
        <mxCell id="KSbS8156Xif0_-mHjQmO-4" style="edgeStyle=orthogonalEdgeStyle;rounded=0;orthogonalLoop=1;jettySize=auto;html=1;exitX=0.5;exitY=1;exitDx=0;exitDy=0;entryX=0;entryY=0.5;entryDx=0;entryDy=0;" edge="1" parent="1" source="KSbS8156Xif0_-mHjQmO-1" target="KSbS8156Xif0_-mHjQmO-2">
          <mxGeometry relative="1" as="geometry" />
        </mxCell>
        <mxCell id="KSbS8156Xif0_-mHjQmO-5" style="edgeStyle=orthogonalEdgeStyle;rounded=0;orthogonalLoop=1;jettySize=auto;html=1;exitX=0.5;exitY=1;exitDx=0;exitDy=0;entryX=0;entryY=0.5;entryDx=0;entryDy=0;" edge="1" parent="1" source="KSbS8156Xif0_-mHjQmO-1" target="KSbS8156Xif0_-mHjQmO-3">
          <mxGeometry relative="1" as="geometry" />
        </mxCell>
        <mxCell id="KSbS8156Xif0_-mHjQmO-1" value="ROOT" style="rounded=1;whiteSpace=wrap;html=1;" vertex="1" parent="1">
          <mxGeometry x="80" y="80" width="230" height="40" as="geometry" />
        </mxCell>
        <mxCell id="KSbS8156Xif0_-mHjQmO-7" style="edgeStyle=orthogonalEdgeStyle;rounded=0;orthogonalLoop=1;jettySize=auto;html=1;exitX=1;exitY=0.5;exitDx=0;exitDy=0;entryX=0;entryY=0.5;entryDx=0;entryDy=0;" edge="1" parent="1" source="KSbS8156Xif0_-mHjQmO-2" target="KSbS8156Xif0_-mHjQmO-6">
          <mxGeometry relative="1" as="geometry" />
        </mxCell>
        <mxCell id="KSbS8156Xif0_-mHjQmO-2" value="css/style.css" style="rounded=1;whiteSpace=wrap;html=1;fillColor=#dae8fc;strokeColor=#6c8ebf;" vertex="1" parent="1">
          <mxGeometry x="270" y="140" width="110" height="40" as="geometry" />
        </mxCell>
        <mxCell id="KSbS8156Xif0_-mHjQmO-8" style="edgeStyle=orthogonalEdgeStyle;rounded=0;orthogonalLoop=1;jettySize=auto;html=1;exitX=1;exitY=0.5;exitDx=0;exitDy=0;entryX=0;entryY=0.5;entryDx=0;entryDy=0;" edge="1" parent="1" source="KSbS8156Xif0_-mHjQmO-3" target="KSbS8156Xif0_-mHjQmO-6">
          <mxGeometry relative="1" as="geometry" />
        </mxCell>
        <mxCell id="KSbS8156Xif0_-mHjQmO-3" value="js/custom.js" style="rounded=1;whiteSpace=wrap;html=1;fillColor=#dae8fc;strokeColor=#6c8ebf;" vertex="1" parent="1">
          <mxGeometry x="270" y="190" width="110" height="40" as="geometry" />
        </mxCell>
        <mxCell id="KSbS8156Xif0_-mHjQmO-6" value="index.html" style="rounded=1;whiteSpace=wrap;html=1;fillColor=#f8cecc;strokeColor=#b85450;" vertex="1" parent="1">
          <mxGeometry x="510" y="240" width="110" height="40" as="geometry" />
        </mxCell>
        <mxCell id="KSbS8156Xif0_-mHjQmO-10" style="edgeStyle=orthogonalEdgeStyle;rounded=0;orthogonalLoop=1;jettySize=auto;html=1;exitX=1;exitY=0.5;exitDx=0;exitDy=0;entryX=0;entryY=0.5;entryDx=0;entryDy=0;" edge="1" parent="1" source="KSbS8156Xif0_-mHjQmO-9" target="KSbS8156Xif0_-mHjQmO-6">
          <mxGeometry relative="1" as="geometry" />
        </mxCell>
        <mxCell id="KSbS8156Xif0_-mHjQmO-9" value="images" style="rounded=1;whiteSpace=wrap;html=1;fillColor=#dae8fc;strokeColor=#6c8ebf;" vertex="1" parent="1">
          <mxGeometry x="270" y="240" width="110" height="40" as="geometry" />
        </mxCell>
        <mxCell id="W-f2TksMoNPwqg3SoeTB-1" value="디렉토리 구조" style="rounded=1;whiteSpace=wrap;html=1;" vertex="1" parent="1">
          <mxGeometry x="80" y="30" width="670" height="30" as="geometry" />
        </mxCell>
        <mxCell id="W-f2TksMoNPwqg3SoeTB-3" value="DOCUMENT 구조" style="rounded=1;whiteSpace=wrap;html=1;" vertex="1" parent="1">
          <mxGeometry x="80" y="330" width="670" height="30" as="geometry" />
        </mxCell>
        <mxCell id="W-f2TksMoNPwqg3SoeTB-7" style="edgeStyle=orthogonalEdgeStyle;rounded=0;orthogonalLoop=1;jettySize=auto;html=1;exitX=0.5;exitY=1;exitDx=0;exitDy=0;entryX=0;entryY=0.5;entryDx=0;entryDy=0;" edge="1" parent="1" source="W-f2TksMoNPwqg3SoeTB-4" target="W-f2TksMoNPwqg3SoeTB-5">
          <mxGeometry relative="1" as="geometry" />
        </mxCell>
        <mxCell id="W-f2TksMoNPwqg3SoeTB-8" style="edgeStyle=orthogonalEdgeStyle;rounded=0;orthogonalLoop=1;jettySize=auto;html=1;exitX=0.5;exitY=1;exitDx=0;exitDy=0;entryX=0;entryY=0.5;entryDx=0;entryDy=0;" edge="1" parent="1" source="W-f2TksMoNPwqg3SoeTB-4" target="W-f2TksMoNPwqg3SoeTB-6">
          <mxGeometry relative="1" as="geometry" />
        </mxCell>
        <mxCell id="W-f2TksMoNPwqg3SoeTB-4" value="html" style="rounded=1;whiteSpace=wrap;html=1;" vertex="1" parent="1">
          <mxGeometry x="80" y="380" width="120" height="50" as="geometry" />
        </mxCell>
        <mxCell id="W-f2TksMoNPwqg3SoeTB-13" style="edgeStyle=orthogonalEdgeStyle;rounded=0;orthogonalLoop=1;jettySize=auto;html=1;exitX=0.5;exitY=1;exitDx=0;exitDy=0;entryX=0;entryY=0.5;entryDx=0;entryDy=0;" edge="1" parent="1" source="W-f2TksMoNPwqg3SoeTB-5" target="W-f2TksMoNPwqg3SoeTB-9">
          <mxGeometry relative="1" as="geometry" />
        </mxCell>
        <mxCell id="W-f2TksMoNPwqg3SoeTB-14" style="edgeStyle=orthogonalEdgeStyle;rounded=0;orthogonalLoop=1;jettySize=auto;html=1;exitX=0.5;exitY=1;exitDx=0;exitDy=0;entryX=0;entryY=0.5;entryDx=0;entryDy=0;" edge="1" parent="1" source="W-f2TksMoNPwqg3SoeTB-5" target="W-f2TksMoNPwqg3SoeTB-10">
          <mxGeometry relative="1" as="geometry" />
        </mxCell>
        <mxCell id="W-f2TksMoNPwqg3SoeTB-15" style="edgeStyle=orthogonalEdgeStyle;rounded=0;orthogonalLoop=1;jettySize=auto;html=1;exitX=0.5;exitY=1;exitDx=0;exitDy=0;entryX=0;entryY=0.5;entryDx=0;entryDy=0;" edge="1" parent="1" source="W-f2TksMoNPwqg3SoeTB-5" target="W-f2TksMoNPwqg3SoeTB-11">
          <mxGeometry relative="1" as="geometry" />
        </mxCell>
        <mxCell id="W-f2TksMoNPwqg3SoeTB-16" style="edgeStyle=orthogonalEdgeStyle;rounded=0;orthogonalLoop=1;jettySize=auto;html=1;exitX=0.5;exitY=1;exitDx=0;exitDy=0;entryX=0;entryY=0.5;entryDx=0;entryDy=0;" edge="1" parent="1" source="W-f2TksMoNPwqg3SoeTB-5" target="W-f2TksMoNPwqg3SoeTB-12">
          <mxGeometry relative="1" as="geometry" />
        </mxCell>
        <mxCell id="W-f2TksMoNPwqg3SoeTB-5" value="head" style="rounded=1;whiteSpace=wrap;html=1;" vertex="1" parent="1">
          <mxGeometry x="200" y="460" width="120" height="50" as="geometry" />
        </mxCell>
        <mxCell id="W-f2TksMoNPwqg3SoeTB-21" style="edgeStyle=orthogonalEdgeStyle;rounded=0;orthogonalLoop=1;jettySize=auto;html=1;exitX=0.5;exitY=1;exitDx=0;exitDy=0;entryX=0;entryY=0.5;entryDx=0;entryDy=0;" edge="1" parent="1" source="W-f2TksMoNPwqg3SoeTB-6" target="W-f2TksMoNPwqg3SoeTB-17">
          <mxGeometry relative="1" as="geometry" />
        </mxCell>
        <mxCell id="W-f2TksMoNPwqg3SoeTB-22" style="edgeStyle=orthogonalEdgeStyle;rounded=0;orthogonalLoop=1;jettySize=auto;html=1;exitX=0.5;exitY=1;exitDx=0;exitDy=0;entryX=0;entryY=0.5;entryDx=0;entryDy=0;" edge="1" parent="1" source="W-f2TksMoNPwqg3SoeTB-6" target="W-f2TksMoNPwqg3SoeTB-18">
          <mxGeometry relative="1" as="geometry" />
        </mxCell>
        <mxCell id="W-f2TksMoNPwqg3SoeTB-6" value="body" style="rounded=1;whiteSpace=wrap;html=1;" vertex="1" parent="1">
          <mxGeometry x="200" y="810" width="120" height="50" as="geometry" />
        </mxCell>
        <mxCell id="W-f2TksMoNPwqg3SoeTB-9" value="meta&lt;span style=&quot;color: rgba(0, 0, 0, 0); font-family: monospace; font-size: 0px; text-align: start; text-wrap-mode: nowrap;&quot;&gt;%3CmxGraphModel%3E%3Croot%3E%3CmxCell%20id%3D%220%22%2F%3E%3CmxCell%20id%3D%221%22%20parent%3D%220%22%2F%3E%3CmxCell%20id%3D%222%22%20value%3D%22head%22%20style%3D%22rounded%3D1%3BwhiteSpace%3Dwrap%3Bhtml%3D1%3B%22%20vertex%3D%221%22%20parent%3D%221%22%3E%3CmxGeometry%20x%3D%22200%22%20y%3D%22460%22%20width%3D%22120%22%20height%3D%2250%22%20as%3D%22geometry%22%2F%3E%3C%2FmxCell%3E%3C%2Froot%3E%3C%2FmxGraphModel%3E&lt;/span&gt;" style="rounded=1;whiteSpace=wrap;html=1;" vertex="1" parent="1">
          <mxGeometry x="354" y="530" width="116" height="50" as="geometry" />
        </mxCell>
        <mxCell id="W-f2TksMoNPwqg3SoeTB-10" value="meta&lt;span style=&quot;color: rgba(0, 0, 0, 0); font-family: monospace; font-size: 0px; text-align: start; text-wrap-mode: nowrap;&quot;&gt;%3CmxGraphModel%3E%3Croot%3E%3CmxCell%20id%3D%220%22%2F%3E%3CmxCell%20id%3D%221%22%20parent%3D%220%22%2F%3E%3CmxCell%20id%3D%222%22%20value%3D%22head%22%20style%3D%22rounded%3D1%3BwhiteSpace%3Dwrap%3Bhtml%3D1%3B%22%20vertex%3D%221%22%20parent%3D%221%22%3E%3CmxGeometry%20x%3D%22200%22%20y%3D%22460%22%20width%3D%22120%22%20height%3D%2250%22%20as%3D%22geometry%22%2F%3E%3C%2FmxCell%3E%3C%2Froot%3E%3C%2FmxGraphModel%3E&lt;/span&gt;" style="rounded=1;whiteSpace=wrap;html=1;" vertex="1" parent="1">
          <mxGeometry x="354" y="585" width="116" height="50" as="geometry" />
        </mxCell>
        <mxCell id="W-f2TksMoNPwqg3SoeTB-11" value="title" style="rounded=1;whiteSpace=wrap;html=1;" vertex="1" parent="1">
          <mxGeometry x="354" y="640" width="116" height="50" as="geometry" />
        </mxCell>
        <mxCell id="W-f2TksMoNPwqg3SoeTB-12" value="link" style="rounded=1;whiteSpace=wrap;html=1;" vertex="1" parent="1">
          <mxGeometry x="354" y="700" width="116" height="50" as="geometry" />
        </mxCell>
        <mxCell id="W-f2TksMoNPwqg3SoeTB-23" style="edgeStyle=orthogonalEdgeStyle;rounded=0;orthogonalLoop=1;jettySize=auto;html=1;exitX=0.5;exitY=1;exitDx=0;exitDy=0;entryX=0;entryY=0.5;entryDx=0;entryDy=0;" edge="1" parent="1" source="W-f2TksMoNPwqg3SoeTB-17" target="W-f2TksMoNPwqg3SoeTB-19">
          <mxGeometry relative="1" as="geometry" />
        </mxCell>
        <mxCell id="W-f2TksMoNPwqg3SoeTB-24" style="edgeStyle=orthogonalEdgeStyle;rounded=0;orthogonalLoop=1;jettySize=auto;html=1;exitX=0.5;exitY=1;exitDx=0;exitDy=0;entryX=0;entryY=0.5;entryDx=0;entryDy=0;" edge="1" parent="1" source="W-f2TksMoNPwqg3SoeTB-17" target="W-f2TksMoNPwqg3SoeTB-20">
          <mxGeometry relative="1" as="geometry" />
        </mxCell>
        <mxCell id="W-f2TksMoNPwqg3SoeTB-17" value="div.wrapper" style="rounded=1;whiteSpace=wrap;html=1;" vertex="1" parent="1">
          <mxGeometry x="352" y="870" width="120" height="50" as="geometry" />
        </mxCell>
        <mxCell id="W-f2TksMoNPwqg3SoeTB-18" value="script" style="rounded=1;whiteSpace=wrap;html=1;" vertex="1" parent="1">
          <mxGeometry x="352" y="1600" width="120" height="50" as="geometry" />
        </mxCell>
        <mxCell id="W-f2TksMoNPwqg3SoeTB-26" style="edgeStyle=orthogonalEdgeStyle;rounded=0;orthogonalLoop=1;jettySize=auto;html=1;exitX=0.5;exitY=1;exitDx=0;exitDy=0;entryX=0;entryY=0.5;entryDx=0;entryDy=0;" edge="1" parent="1" source="W-f2TksMoNPwqg3SoeTB-19" target="W-f2TksMoNPwqg3SoeTB-25">
          <mxGeometry relative="1" as="geometry" />
        </mxCell>
        <mxCell id="W-f2TksMoNPwqg3SoeTB-19" value="header" style="rounded=1;whiteSpace=wrap;html=1;" vertex="1" parent="1">
          <mxGeometry x="500" y="930" width="120" height="50" as="geometry" />
        </mxCell>
        <mxCell id="W-f2TksMoNPwqg3SoeTB-35" style="edgeStyle=orthogonalEdgeStyle;rounded=0;orthogonalLoop=1;jettySize=auto;html=1;exitX=0.5;exitY=1;exitDx=0;exitDy=0;entryX=0;entryY=0.5;entryDx=0;entryDy=0;" edge="1" parent="1" source="W-f2TksMoNPwqg3SoeTB-20" target="W-f2TksMoNPwqg3SoeTB-33">
          <mxGeometry relative="1" as="geometry" />
        </mxCell>
        <mxCell id="W-f2TksMoNPwqg3SoeTB-20" value="div.vid" style="rounded=1;whiteSpace=wrap;html=1;" vertex="1" parent="1">
          <mxGeometry x="505" y="1380" width="120" height="50" as="geometry" />
        </mxCell>
        <mxCell id="W-f2TksMoNPwqg3SoeTB-28" style="edgeStyle=orthogonalEdgeStyle;rounded=0;orthogonalLoop=1;jettySize=auto;html=1;exitX=0.5;exitY=1;exitDx=0;exitDy=0;entryX=0;entryY=0.5;entryDx=0;entryDy=0;" edge="1" parent="1" source="W-f2TksMoNPwqg3SoeTB-25" target="W-f2TksMoNPwqg3SoeTB-27">
          <mxGeometry relative="1" as="geometry" />
        </mxCell>
        <mxCell id="W-f2TksMoNPwqg3SoeTB-25" value="div.container" style="rounded=1;whiteSpace=wrap;html=1;" vertex="1" parent="1">
          <mxGeometry x="660" y="990" width="120" height="50" as="geometry" />
        </mxCell>
        <mxCell id="W-f2TksMoNPwqg3SoeTB-31" style="edgeStyle=orthogonalEdgeStyle;rounded=0;orthogonalLoop=1;jettySize=auto;html=1;exitX=0.5;exitY=1;exitDx=0;exitDy=0;entryX=0;entryY=0.5;entryDx=0;entryDy=0;" edge="1" parent="1" source="W-f2TksMoNPwqg3SoeTB-27" target="W-f2TksMoNPwqg3SoeTB-29">
          <mxGeometry relative="1" as="geometry" />
        </mxCell>
        <mxCell id="W-f2TksMoNPwqg3SoeTB-27" value="div.logo" style="rounded=1;whiteSpace=wrap;html=1;" vertex="1" parent="1">
          <mxGeometry x="840" y="1050" width="120" height="50" as="geometry" />
        </mxCell>
        <mxCell id="W-f2TksMoNPwqg3SoeTB-32" style="edgeStyle=orthogonalEdgeStyle;rounded=0;orthogonalLoop=1;jettySize=auto;html=1;exitX=0.5;exitY=1;exitDx=0;exitDy=0;entryX=0;entryY=0.5;entryDx=0;entryDy=0;" edge="1" parent="1" source="W-f2TksMoNPwqg3SoeTB-29" target="W-f2TksMoNPwqg3SoeTB-30">
          <mxGeometry relative="1" as="geometry" />
        </mxCell>
        <mxCell id="W-f2TksMoNPwqg3SoeTB-29" value="a" style="rounded=1;whiteSpace=wrap;html=1;" vertex="1" parent="1">
          <mxGeometry x="990" y="1110" width="120" height="50" as="geometry" />
        </mxCell>
        <mxCell id="W-f2TksMoNPwqg3SoeTB-30" value="img" style="rounded=1;whiteSpace=wrap;html=1;" vertex="1" parent="1">
          <mxGeometry x="1150" y="1170" width="120" height="50" as="geometry" />
        </mxCell>
        <mxCell id="W-f2TksMoNPwqg3SoeTB-38" style="edgeStyle=orthogonalEdgeStyle;rounded=0;orthogonalLoop=1;jettySize=auto;html=1;exitX=0.5;exitY=1;exitDx=0;exitDy=0;entryX=0;entryY=0.5;entryDx=0;entryDy=0;" edge="1" parent="1" source="W-f2TksMoNPwqg3SoeTB-33" target="W-f2TksMoNPwqg3SoeTB-34">
          <mxGeometry relative="1" as="geometry" />
        </mxCell>
        <mxCell id="W-f2TksMoNPwqg3SoeTB-33" value="video" style="rounded=1;whiteSpace=wrap;html=1;" vertex="1" parent="1">
          <mxGeometry x="660" y="1440" width="120" height="50" as="geometry" />
        </mxCell>
        <mxCell id="W-f2TksMoNPwqg3SoeTB-34" value="source" style="rounded=1;whiteSpace=wrap;html=1;" vertex="1" parent="1">
          <mxGeometry x="827" y="1510" width="120" height="50" as="geometry" />
        </mxCell>
      </root>
    </mxGraphModel>
  </diagram>
</mxfile>
